<mxfile host="app.diagrams.net" modified="2023-11-26T18:53:28.298Z" agent="Mozilla/5.0 (Windows NT 10.0; Win64; x64) AppleWebKit/537.36 (KHTML, like Gecko) Chrome/119.0.0.0 Safari/537.36" etag="_tglbe-lxTh4LPKg0IPG" version="22.1.4" type="device">
  <diagram name="Page-1" id="tajsgTH4dyHng_gMF2nl">
    <mxGraphModel dx="1034" dy="694" grid="1" gridSize="10" guides="1" tooltips="1" connect="1" arrows="1" fold="1" page="1" pageScale="1" pageWidth="3300" pageHeight="4681" math="0" shadow="0">
      <root>
        <mxCell id="0" />
        <mxCell id="1" parent="0" />
        <mxCell id="2riaoFkCgRDuT4ozKjDX-1" value="Conta Utilizador" style="rounded=0;whiteSpace=wrap;html=1;" vertex="1" parent="1">
          <mxGeometry x="640" y="1280" width="120" height="80" as="geometry" />
        </mxCell>
        <mxCell id="2riaoFkCgRDuT4ozKjDX-2" value="" style="endArrow=none;html=1;rounded=0;entryX=0;entryY=0.5;entryDx=0;entryDy=0;exitX=1;exitY=0.5;exitDx=0;exitDy=0;" edge="1" parent="1" source="2riaoFkCgRDuT4ozKjDX-9" target="2riaoFkCgRDuT4ozKjDX-1">
          <mxGeometry width="50" height="50" relative="1" as="geometry">
            <mxPoint x="560" y="1360" as="sourcePoint" />
            <mxPoint x="620" y="1340" as="targetPoint" />
          </mxGeometry>
        </mxCell>
        <mxCell id="2riaoFkCgRDuT4ozKjDX-3" value="Associar" style="rhombus;whiteSpace=wrap;html=1;" vertex="1" parent="1">
          <mxGeometry x="840" y="1280" width="80" height="80" as="geometry" />
        </mxCell>
        <mxCell id="2riaoFkCgRDuT4ozKjDX-4" value="n" style="text;html=1;strokeColor=none;fillColor=none;align=center;verticalAlign=middle;whiteSpace=wrap;rounded=0;" vertex="1" parent="1">
          <mxGeometry x="1110" y="1290" width="60" height="30" as="geometry" />
        </mxCell>
        <mxCell id="2riaoFkCgRDuT4ozKjDX-5" value="Desafio" style="rounded=0;whiteSpace=wrap;html=1;" vertex="1" parent="1">
          <mxGeometry x="1000" y="1280" width="120" height="80" as="geometry" />
        </mxCell>
        <mxCell id="2riaoFkCgRDuT4ozKjDX-6" value="Região" style="rounded=0;whiteSpace=wrap;html=1;" vertex="1" parent="1">
          <mxGeometry x="1360" y="1400" width="120" height="80" as="geometry" />
        </mxCell>
        <mxCell id="2riaoFkCgRDuT4ozKjDX-7" value="País" style="rounded=0;whiteSpace=wrap;html=1;" vertex="1" parent="1">
          <mxGeometry x="1360" y="1520" width="120" height="80" as="geometry" />
        </mxCell>
        <mxCell id="2riaoFkCgRDuT4ozKjDX-8" value="Localidade" style="rounded=0;whiteSpace=wrap;html=1;" vertex="1" parent="1">
          <mxGeometry x="1360" y="1280" width="120" height="80" as="geometry" />
        </mxCell>
        <mxCell id="2riaoFkCgRDuT4ozKjDX-9" value="id_user" style="ellipse;whiteSpace=wrap;html=1;" vertex="1" parent="1">
          <mxGeometry x="520" y="1280" width="80" height="80" as="geometry" />
        </mxCell>
        <mxCell id="2riaoFkCgRDuT4ozKjDX-10" value="" style="endArrow=none;html=1;rounded=0;entryX=0;entryY=0.5;entryDx=0;entryDy=0;exitX=1;exitY=0.5;exitDx=0;exitDy=0;" edge="1" parent="1" source="2riaoFkCgRDuT4ozKjDX-11" target="2riaoFkCgRDuT4ozKjDX-9">
          <mxGeometry width="50" height="50" relative="1" as="geometry">
            <mxPoint x="440" y="1360" as="sourcePoint" />
            <mxPoint x="520" y="1320" as="targetPoint" />
          </mxGeometry>
        </mxCell>
        <mxCell id="2riaoFkCgRDuT4ozKjDX-11" value="nome" style="ellipse;whiteSpace=wrap;html=1;" vertex="1" parent="1">
          <mxGeometry x="400" y="1280" width="80" height="80" as="geometry" />
        </mxCell>
        <mxCell id="2riaoFkCgRDuT4ozKjDX-12" value="" style="endArrow=none;html=1;rounded=0;entryX=0;entryY=0.5;entryDx=0;entryDy=0;exitX=1;exitY=0.5;exitDx=0;exitDy=0;" edge="1" parent="1" source="2riaoFkCgRDuT4ozKjDX-13" target="2riaoFkCgRDuT4ozKjDX-11">
          <mxGeometry width="50" height="50" relative="1" as="geometry">
            <mxPoint x="320" y="1360" as="sourcePoint" />
            <mxPoint x="400" y="1320" as="targetPoint" />
          </mxGeometry>
        </mxCell>
        <mxCell id="2riaoFkCgRDuT4ozKjDX-13" value="idade" style="ellipse;whiteSpace=wrap;html=1;" vertex="1" parent="1">
          <mxGeometry x="280" y="1280" width="80" height="80" as="geometry" />
        </mxCell>
        <mxCell id="2riaoFkCgRDuT4ozKjDX-14" value="" style="endArrow=none;html=1;rounded=0;exitX=1;exitY=0.5;exitDx=0;exitDy=0;entryX=0;entryY=0.5;entryDx=0;entryDy=0;" edge="1" parent="1" source="2riaoFkCgRDuT4ozKjDX-15" target="2riaoFkCgRDuT4ozKjDX-13">
          <mxGeometry width="50" height="50" relative="1" as="geometry">
            <mxPoint x="200" y="1360" as="sourcePoint" />
            <mxPoint x="270" y="1350" as="targetPoint" />
          </mxGeometry>
        </mxCell>
        <mxCell id="2riaoFkCgRDuT4ozKjDX-15" value="email" style="ellipse;whiteSpace=wrap;html=1;" vertex="1" parent="1">
          <mxGeometry x="160" y="1280" width="80" height="80" as="geometry" />
        </mxCell>
        <mxCell id="2riaoFkCgRDuT4ozKjDX-16" value="" style="endArrow=none;html=1;rounded=0;exitX=1;exitY=0.5;exitDx=0;exitDy=0;entryX=0;entryY=0.5;entryDx=0;entryDy=0;" edge="1" parent="1" source="2riaoFkCgRDuT4ozKjDX-17" target="2riaoFkCgRDuT4ozKjDX-15">
          <mxGeometry width="50" height="50" relative="1" as="geometry">
            <mxPoint x="80" y="1360" as="sourcePoint" />
            <mxPoint x="150" y="1340" as="targetPoint" />
          </mxGeometry>
        </mxCell>
        <mxCell id="2riaoFkCgRDuT4ozKjDX-17" value="telefone" style="ellipse;whiteSpace=wrap;html=1;" vertex="1" parent="1">
          <mxGeometry x="40" y="1280" width="80" height="80" as="geometry" />
        </mxCell>
        <mxCell id="2riaoFkCgRDuT4ozKjDX-18" value="" style="endArrow=none;html=1;rounded=0;entryX=0;entryY=0.5;entryDx=0;entryDy=0;exitX=1;exitY=0.5;exitDx=0;exitDy=0;" edge="1" parent="1" source="2riaoFkCgRDuT4ozKjDX-5" target="2riaoFkCgRDuT4ozKjDX-19">
          <mxGeometry width="50" height="50" relative="1" as="geometry">
            <mxPoint x="980" y="1420" as="sourcePoint" />
            <mxPoint x="1020" y="1420" as="targetPoint" />
          </mxGeometry>
        </mxCell>
        <mxCell id="2riaoFkCgRDuT4ozKjDX-19" value="Situa-se" style="rhombus;whiteSpace=wrap;html=1;" vertex="1" parent="1">
          <mxGeometry x="1200" y="1280" width="80" height="80" as="geometry" />
        </mxCell>
        <mxCell id="2riaoFkCgRDuT4ozKjDX-20" value="" style="endArrow=none;html=1;rounded=0;entryX=0;entryY=0.5;entryDx=0;entryDy=0;exitX=1;exitY=0.5;exitDx=0;exitDy=0;" edge="1" parent="1" source="2riaoFkCgRDuT4ozKjDX-19" target="2riaoFkCgRDuT4ozKjDX-8">
          <mxGeometry width="50" height="50" relative="1" as="geometry">
            <mxPoint x="1130" y="1330" as="sourcePoint" />
            <mxPoint x="1210" y="1330" as="targetPoint" />
          </mxGeometry>
        </mxCell>
        <mxCell id="2riaoFkCgRDuT4ozKjDX-22" value="Situa-se" style="rhombus;whiteSpace=wrap;html=1;" vertex="1" parent="1">
          <mxGeometry x="1200" y="1400" width="80" height="80" as="geometry" />
        </mxCell>
        <mxCell id="2riaoFkCgRDuT4ozKjDX-23" value="Situa-se" style="rhombus;whiteSpace=wrap;html=1;" vertex="1" parent="1">
          <mxGeometry x="1200" y="1520" width="80" height="80" as="geometry" />
        </mxCell>
        <mxCell id="2riaoFkCgRDuT4ozKjDX-24" value="" style="endArrow=none;html=1;rounded=0;entryX=0;entryY=0.5;entryDx=0;entryDy=0;exitX=1;exitY=0.5;exitDx=0;exitDy=0;" edge="1" parent="1" source="2riaoFkCgRDuT4ozKjDX-22" target="2riaoFkCgRDuT4ozKjDX-6">
          <mxGeometry width="50" height="50" relative="1" as="geometry">
            <mxPoint x="1280" y="1400" as="sourcePoint" />
            <mxPoint x="1360" y="1400" as="targetPoint" />
          </mxGeometry>
        </mxCell>
        <mxCell id="2riaoFkCgRDuT4ozKjDX-25" value="" style="endArrow=none;html=1;rounded=0;entryX=0;entryY=0.5;entryDx=0;entryDy=0;exitX=1;exitY=0.5;exitDx=0;exitDy=0;" edge="1" parent="1" source="2riaoFkCgRDuT4ozKjDX-23" target="2riaoFkCgRDuT4ozKjDX-7">
          <mxGeometry width="50" height="50" relative="1" as="geometry">
            <mxPoint x="1300" y="1340" as="sourcePoint" />
            <mxPoint x="1380" y="1340" as="targetPoint" />
          </mxGeometry>
        </mxCell>
        <mxCell id="2riaoFkCgRDuT4ozKjDX-26" value="" style="endArrow=none;html=1;rounded=0;entryX=0;entryY=0.5;entryDx=0;entryDy=0;exitX=1;exitY=0.5;exitDx=0;exitDy=0;" edge="1" parent="1" source="2riaoFkCgRDuT4ozKjDX-5" target="2riaoFkCgRDuT4ozKjDX-22">
          <mxGeometry width="50" height="50" relative="1" as="geometry">
            <mxPoint x="1130" y="1330" as="sourcePoint" />
            <mxPoint x="1210" y="1330" as="targetPoint" />
          </mxGeometry>
        </mxCell>
        <mxCell id="2riaoFkCgRDuT4ozKjDX-27" value="" style="endArrow=none;html=1;rounded=0;entryX=0;entryY=0.5;entryDx=0;entryDy=0;exitX=1;exitY=0.5;exitDx=0;exitDy=0;" edge="1" parent="1" source="2riaoFkCgRDuT4ozKjDX-5" target="2riaoFkCgRDuT4ozKjDX-23">
          <mxGeometry width="50" height="50" relative="1" as="geometry">
            <mxPoint x="1140" y="1340" as="sourcePoint" />
            <mxPoint x="1220" y="1340" as="targetPoint" />
          </mxGeometry>
        </mxCell>
        <mxCell id="2riaoFkCgRDuT4ozKjDX-29" value="1" style="text;html=1;strokeColor=none;fillColor=none;align=center;verticalAlign=middle;whiteSpace=wrap;rounded=0;" vertex="1" parent="1">
          <mxGeometry x="1320" y="1290" width="60" height="30" as="geometry" />
        </mxCell>
        <mxCell id="2riaoFkCgRDuT4ozKjDX-30" value="n" style="text;html=1;strokeColor=none;fillColor=none;align=center;verticalAlign=middle;whiteSpace=wrap;rounded=0;" vertex="1" parent="1">
          <mxGeometry x="1120" y="1330" width="60" height="30" as="geometry" />
        </mxCell>
        <mxCell id="2riaoFkCgRDuT4ozKjDX-31" value="n" style="text;html=1;strokeColor=none;fillColor=none;align=center;verticalAlign=middle;whiteSpace=wrap;rounded=0;" vertex="1" parent="1">
          <mxGeometry x="1100" y="1370" width="60" height="30" as="geometry" />
        </mxCell>
        <mxCell id="2riaoFkCgRDuT4ozKjDX-34" value="1" style="text;html=1;strokeColor=none;fillColor=none;align=center;verticalAlign=middle;whiteSpace=wrap;rounded=0;" vertex="1" parent="1">
          <mxGeometry x="1320" y="1410" width="60" height="30" as="geometry" />
        </mxCell>
        <mxCell id="2riaoFkCgRDuT4ozKjDX-35" value="1" style="text;html=1;strokeColor=none;fillColor=none;align=center;verticalAlign=middle;whiteSpace=wrap;rounded=0;" vertex="1" parent="1">
          <mxGeometry x="1320" y="1570" width="60" height="30" as="geometry" />
        </mxCell>
        <mxCell id="2riaoFkCgRDuT4ozKjDX-36" value="" style="endArrow=none;html=1;rounded=0;entryX=0;entryY=0.5;entryDx=0;entryDy=0;exitX=1;exitY=0.5;exitDx=0;exitDy=0;" edge="1" parent="1" source="2riaoFkCgRDuT4ozKjDX-1" target="2riaoFkCgRDuT4ozKjDX-3">
          <mxGeometry width="50" height="50" relative="1" as="geometry">
            <mxPoint x="610" y="1330" as="sourcePoint" />
            <mxPoint x="650" y="1330" as="targetPoint" />
          </mxGeometry>
        </mxCell>
        <mxCell id="2riaoFkCgRDuT4ozKjDX-37" value="" style="endArrow=none;html=1;rounded=0;entryX=0;entryY=0.5;entryDx=0;entryDy=0;exitX=1;exitY=0.5;exitDx=0;exitDy=0;" edge="1" parent="1" source="2riaoFkCgRDuT4ozKjDX-3" target="2riaoFkCgRDuT4ozKjDX-5">
          <mxGeometry width="50" height="50" relative="1" as="geometry">
            <mxPoint x="770" y="1330" as="sourcePoint" />
            <mxPoint x="850" y="1330" as="targetPoint" />
          </mxGeometry>
        </mxCell>
        <mxCell id="2riaoFkCgRDuT4ozKjDX-38" value="n" style="text;html=1;strokeColor=none;fillColor=none;align=center;verticalAlign=middle;whiteSpace=wrap;rounded=0;" vertex="1" parent="1">
          <mxGeometry x="740" y="1320" width="60" height="30" as="geometry" />
        </mxCell>
        <mxCell id="2riaoFkCgRDuT4ozKjDX-39" value="n" style="text;html=1;strokeColor=none;fillColor=none;align=center;verticalAlign=middle;whiteSpace=wrap;rounded=0;" vertex="1" parent="1">
          <mxGeometry x="960" y="1320" width="60" height="30" as="geometry" />
        </mxCell>
        <mxCell id="2riaoFkCgRDuT4ozKjDX-41" value="Criar" style="rhombus;whiteSpace=wrap;html=1;" vertex="1" parent="1">
          <mxGeometry x="840" y="1160" width="80" height="80" as="geometry" />
        </mxCell>
        <mxCell id="2riaoFkCgRDuT4ozKjDX-42" value="" style="endArrow=none;html=1;rounded=0;entryX=0;entryY=0.5;entryDx=0;entryDy=0;exitX=1;exitY=0.5;exitDx=0;exitDy=0;" edge="1" parent="1" source="2riaoFkCgRDuT4ozKjDX-1" target="2riaoFkCgRDuT4ozKjDX-41">
          <mxGeometry width="50" height="50" relative="1" as="geometry">
            <mxPoint x="770" y="1330" as="sourcePoint" />
            <mxPoint x="850" y="1330" as="targetPoint" />
          </mxGeometry>
        </mxCell>
        <mxCell id="2riaoFkCgRDuT4ozKjDX-43" value="" style="endArrow=none;html=1;rounded=0;entryX=1;entryY=0.5;entryDx=0;entryDy=0;exitX=0;exitY=0.5;exitDx=0;exitDy=0;" edge="1" parent="1" source="2riaoFkCgRDuT4ozKjDX-5" target="2riaoFkCgRDuT4ozKjDX-41">
          <mxGeometry width="50" height="50" relative="1" as="geometry">
            <mxPoint x="770" y="1330" as="sourcePoint" />
            <mxPoint x="850" y="1210" as="targetPoint" />
          </mxGeometry>
        </mxCell>
        <mxCell id="2riaoFkCgRDuT4ozKjDX-44" value="1" style="text;html=1;strokeColor=none;fillColor=none;align=center;verticalAlign=middle;whiteSpace=wrap;rounded=0;" vertex="1" parent="1">
          <mxGeometry x="750" y="1250" width="60" height="30" as="geometry" />
        </mxCell>
        <mxCell id="2riaoFkCgRDuT4ozKjDX-45" value="n" style="text;html=1;strokeColor=none;fillColor=none;align=center;verticalAlign=middle;whiteSpace=wrap;rounded=0;" vertex="1" parent="1">
          <mxGeometry x="950" y="1250" width="60" height="30" as="geometry" />
        </mxCell>
        <mxCell id="2riaoFkCgRDuT4ozKjDX-46" value="" style="endArrow=none;html=1;rounded=0;exitX=0.5;exitY=1;exitDx=0;exitDy=0;entryX=0.5;entryY=0;entryDx=0;entryDy=0;" edge="1" parent="1" source="2riaoFkCgRDuT4ozKjDX-5" target="2riaoFkCgRDuT4ozKjDX-60">
          <mxGeometry width="50" height="50" relative="1" as="geometry">
            <mxPoint x="1020" y="1424.5" as="sourcePoint" />
            <mxPoint x="1060" y="1430" as="targetPoint" />
          </mxGeometry>
        </mxCell>
        <mxCell id="2riaoFkCgRDuT4ozKjDX-48" value="" style="endArrow=none;html=1;rounded=0;exitX=1;exitY=0.5;exitDx=0;exitDy=0;entryX=0;entryY=0.5;entryDx=0;entryDy=0;" edge="1" parent="1" source="2riaoFkCgRDuT4ozKjDX-8" target="2riaoFkCgRDuT4ozKjDX-49">
          <mxGeometry width="50" height="50" relative="1" as="geometry">
            <mxPoint x="1530" y="1340" as="sourcePoint" />
            <mxPoint x="1530" y="1320" as="targetPoint" />
          </mxGeometry>
        </mxCell>
        <mxCell id="2riaoFkCgRDuT4ozKjDX-49" value="id_localidade" style="ellipse;whiteSpace=wrap;html=1;" vertex="1" parent="1">
          <mxGeometry x="1520" y="1280" width="80" height="80" as="geometry" />
        </mxCell>
        <mxCell id="2riaoFkCgRDuT4ozKjDX-50" value="" style="endArrow=none;html=1;rounded=0;exitX=1;exitY=0.5;exitDx=0;exitDy=0;entryX=0;entryY=0.5;entryDx=0;entryDy=0;" edge="1" parent="1" target="2riaoFkCgRDuT4ozKjDX-51" source="2riaoFkCgRDuT4ozKjDX-49">
          <mxGeometry width="50" height="50" relative="1" as="geometry">
            <mxPoint x="1600" y="1320" as="sourcePoint" />
            <mxPoint x="1650" y="1320" as="targetPoint" />
          </mxGeometry>
        </mxCell>
        <mxCell id="2riaoFkCgRDuT4ozKjDX-51" value="nome" style="ellipse;whiteSpace=wrap;html=1;" vertex="1" parent="1">
          <mxGeometry x="1640" y="1280" width="80" height="80" as="geometry" />
        </mxCell>
        <mxCell id="2riaoFkCgRDuT4ozKjDX-52" value="" style="endArrow=none;html=1;rounded=0;exitX=1;exitY=0.5;exitDx=0;exitDy=0;entryX=0;entryY=0.5;entryDx=0;entryDy=0;" edge="1" parent="1" target="2riaoFkCgRDuT4ozKjDX-53" source="2riaoFkCgRDuT4ozKjDX-6">
          <mxGeometry width="50" height="50" relative="1" as="geometry">
            <mxPoint x="1480" y="1440" as="sourcePoint" />
            <mxPoint x="1530" y="1440" as="targetPoint" />
          </mxGeometry>
        </mxCell>
        <mxCell id="2riaoFkCgRDuT4ozKjDX-53" value="id_regiao" style="ellipse;whiteSpace=wrap;html=1;" vertex="1" parent="1">
          <mxGeometry x="1520" y="1400" width="80" height="80" as="geometry" />
        </mxCell>
        <mxCell id="2riaoFkCgRDuT4ozKjDX-54" value="" style="endArrow=none;html=1;rounded=0;exitX=1;exitY=0.5;exitDx=0;exitDy=0;entryX=0;entryY=0.5;entryDx=0;entryDy=0;" edge="1" parent="1" source="2riaoFkCgRDuT4ozKjDX-53" target="2riaoFkCgRDuT4ozKjDX-55">
          <mxGeometry width="50" height="50" relative="1" as="geometry">
            <mxPoint x="1600" y="1440" as="sourcePoint" />
            <mxPoint x="1650" y="1440" as="targetPoint" />
          </mxGeometry>
        </mxCell>
        <mxCell id="2riaoFkCgRDuT4ozKjDX-55" value="nome" style="ellipse;whiteSpace=wrap;html=1;" vertex="1" parent="1">
          <mxGeometry x="1640" y="1400" width="80" height="80" as="geometry" />
        </mxCell>
        <mxCell id="2riaoFkCgRDuT4ozKjDX-56" value="" style="endArrow=none;html=1;rounded=0;exitX=1;exitY=0.5;exitDx=0;exitDy=0;entryX=0;entryY=0.5;entryDx=0;entryDy=0;" edge="1" parent="1" target="2riaoFkCgRDuT4ozKjDX-57">
          <mxGeometry width="50" height="50" relative="1" as="geometry">
            <mxPoint x="1480" y="1560" as="sourcePoint" />
            <mxPoint x="1530" y="1560" as="targetPoint" />
          </mxGeometry>
        </mxCell>
        <mxCell id="2riaoFkCgRDuT4ozKjDX-57" value="id_pais" style="ellipse;whiteSpace=wrap;html=1;" vertex="1" parent="1">
          <mxGeometry x="1520" y="1520" width="80" height="80" as="geometry" />
        </mxCell>
        <mxCell id="2riaoFkCgRDuT4ozKjDX-58" value="" style="endArrow=none;html=1;rounded=0;exitX=1;exitY=0.5;exitDx=0;exitDy=0;entryX=0;entryY=0.5;entryDx=0;entryDy=0;" edge="1" parent="1" source="2riaoFkCgRDuT4ozKjDX-57" target="2riaoFkCgRDuT4ozKjDX-59">
          <mxGeometry width="50" height="50" relative="1" as="geometry">
            <mxPoint x="1600" y="1560" as="sourcePoint" />
            <mxPoint x="1650" y="1560" as="targetPoint" />
          </mxGeometry>
        </mxCell>
        <mxCell id="2riaoFkCgRDuT4ozKjDX-59" value="nome" style="ellipse;whiteSpace=wrap;html=1;" vertex="1" parent="1">
          <mxGeometry x="1640" y="1520" width="80" height="80" as="geometry" />
        </mxCell>
        <mxCell id="2riaoFkCgRDuT4ozKjDX-60" value="id_desafio" style="ellipse;whiteSpace=wrap;html=1;" vertex="1" parent="1">
          <mxGeometry x="1020" y="1400" width="80" height="80" as="geometry" />
        </mxCell>
        <mxCell id="2riaoFkCgRDuT4ozKjDX-61" value="" style="endArrow=none;html=1;rounded=0;exitX=0.5;exitY=1;exitDx=0;exitDy=0;entryX=0.5;entryY=0;entryDx=0;entryDy=0;" edge="1" parent="1" target="2riaoFkCgRDuT4ozKjDX-62" source="2riaoFkCgRDuT4ozKjDX-60">
          <mxGeometry width="50" height="50" relative="1" as="geometry">
            <mxPoint x="1060" y="1480" as="sourcePoint" />
            <mxPoint x="1060" y="1550" as="targetPoint" />
          </mxGeometry>
        </mxCell>
        <mxCell id="2riaoFkCgRDuT4ozKjDX-62" value="missao" style="ellipse;whiteSpace=wrap;html=1;" vertex="1" parent="1">
          <mxGeometry x="1020" y="1520" width="80" height="80" as="geometry" />
        </mxCell>
        <mxCell id="2riaoFkCgRDuT4ozKjDX-63" value="" style="endArrow=none;html=1;rounded=0;exitX=0.5;exitY=1;exitDx=0;exitDy=0;entryX=0.5;entryY=0;entryDx=0;entryDy=0;" edge="1" parent="1" target="2riaoFkCgRDuT4ozKjDX-64" source="2riaoFkCgRDuT4ozKjDX-3">
          <mxGeometry width="50" height="50" relative="1" as="geometry">
            <mxPoint x="880" y="1360" as="sourcePoint" />
            <mxPoint x="880" y="1430" as="targetPoint" />
          </mxGeometry>
        </mxCell>
        <mxCell id="2riaoFkCgRDuT4ozKjDX-64" value="sucesso" style="ellipse;whiteSpace=wrap;html=1;" vertex="1" parent="1">
          <mxGeometry x="840" y="1400" width="80" height="80" as="geometry" />
        </mxCell>
        <mxCell id="2riaoFkCgRDuT4ozKjDX-65" value="" style="endArrow=none;html=1;rounded=0;entryX=0.5;entryY=0;entryDx=0;entryDy=0;exitX=0.5;exitY=1;exitDx=0;exitDy=0;" edge="1" parent="1" target="2riaoFkCgRDuT4ozKjDX-66" source="2riaoFkCgRDuT4ozKjDX-76">
          <mxGeometry width="50" height="50" relative="1" as="geometry">
            <mxPoint x="830" y="1780" as="sourcePoint" />
            <mxPoint x="880" y="1830" as="targetPoint" />
          </mxGeometry>
        </mxCell>
        <mxCell id="2riaoFkCgRDuT4ozKjDX-66" value="dataInicio" style="ellipse;whiteSpace=wrap;html=1;" vertex="1" parent="1">
          <mxGeometry x="840" y="1640" width="80" height="80" as="geometry" />
        </mxCell>
        <mxCell id="2riaoFkCgRDuT4ozKjDX-67" value="" style="endArrow=none;html=1;rounded=0;exitX=0.5;exitY=1;exitDx=0;exitDy=0;entryX=0.5;entryY=0;entryDx=0;entryDy=0;" edge="1" parent="1" target="2riaoFkCgRDuT4ozKjDX-68" source="2riaoFkCgRDuT4ozKjDX-66">
          <mxGeometry width="50" height="50" relative="1" as="geometry">
            <mxPoint x="880" y="1720" as="sourcePoint" />
            <mxPoint x="880" y="1790" as="targetPoint" />
          </mxGeometry>
        </mxCell>
        <mxCell id="2riaoFkCgRDuT4ozKjDX-68" value="horaInicio" style="ellipse;whiteSpace=wrap;html=1;" vertex="1" parent="1">
          <mxGeometry x="840" y="1760" width="80" height="80" as="geometry" />
        </mxCell>
        <mxCell id="2riaoFkCgRDuT4ozKjDX-69" value="" style="endArrow=none;html=1;rounded=0;exitX=0.5;exitY=1;exitDx=0;exitDy=0;entryX=0.5;entryY=0;entryDx=0;entryDy=0;" edge="1" parent="1" target="2riaoFkCgRDuT4ozKjDX-70">
          <mxGeometry width="50" height="50" relative="1" as="geometry">
            <mxPoint x="880" y="1840" as="sourcePoint" />
            <mxPoint x="880" y="1910" as="targetPoint" />
          </mxGeometry>
        </mxCell>
        <mxCell id="2riaoFkCgRDuT4ozKjDX-70" value="dataFim" style="ellipse;whiteSpace=wrap;html=1;" vertex="1" parent="1">
          <mxGeometry x="840" y="1880" width="80" height="80" as="geometry" />
        </mxCell>
        <mxCell id="2riaoFkCgRDuT4ozKjDX-71" value="" style="endArrow=none;html=1;rounded=0;exitX=0.5;exitY=1;exitDx=0;exitDy=0;entryX=0.5;entryY=0;entryDx=0;entryDy=0;" edge="1" parent="1" source="2riaoFkCgRDuT4ozKjDX-70" target="2riaoFkCgRDuT4ozKjDX-72">
          <mxGeometry width="50" height="50" relative="1" as="geometry">
            <mxPoint x="880" y="1960" as="sourcePoint" />
            <mxPoint x="880" y="2030" as="targetPoint" />
          </mxGeometry>
        </mxCell>
        <mxCell id="2riaoFkCgRDuT4ozKjDX-72" value="horaFim" style="ellipse;whiteSpace=wrap;html=1;" vertex="1" parent="1">
          <mxGeometry x="840" y="2000" width="80" height="80" as="geometry" />
        </mxCell>
        <mxCell id="2riaoFkCgRDuT4ozKjDX-73" value="" style="endArrow=none;html=1;rounded=0;exitX=0.5;exitY=1;exitDx=0;exitDy=0;entryX=0.5;entryY=0;entryDx=0;entryDy=0;" edge="1" parent="1" target="2riaoFkCgRDuT4ozKjDX-74" source="2riaoFkCgRDuT4ozKjDX-62">
          <mxGeometry width="50" height="50" relative="1" as="geometry">
            <mxPoint x="1060" y="1600" as="sourcePoint" />
            <mxPoint x="1060" y="1670" as="targetPoint" />
          </mxGeometry>
        </mxCell>
        <mxCell id="2riaoFkCgRDuT4ozKjDX-74" value="numMaxUsers" style="ellipse;whiteSpace=wrap;html=1;" vertex="1" parent="1">
          <mxGeometry x="1020" y="1640" width="80" height="80" as="geometry" />
        </mxCell>
        <mxCell id="2riaoFkCgRDuT4ozKjDX-75" value="" style="endArrow=none;html=1;rounded=0;exitX=0.5;exitY=1;exitDx=0;exitDy=0;entryX=0.5;entryY=0;entryDx=0;entryDy=0;" edge="1" parent="1" target="2riaoFkCgRDuT4ozKjDX-76" source="2riaoFkCgRDuT4ozKjDX-64">
          <mxGeometry width="50" height="50" relative="1" as="geometry">
            <mxPoint x="880" y="1480" as="sourcePoint" />
            <mxPoint x="880" y="1550" as="targetPoint" />
          </mxGeometry>
        </mxCell>
        <mxCell id="2riaoFkCgRDuT4ozKjDX-76" value="validado" style="ellipse;whiteSpace=wrap;html=1;" vertex="1" parent="1">
          <mxGeometry x="840" y="1520" width="80" height="80" as="geometry" />
        </mxCell>
      </root>
    </mxGraphModel>
  </diagram>
</mxfile>
